<?xml version="1.0" standalone="no"?>
<!DOCTYPE svg PUBLIC "-//W3C//DTD SVG 20010904//EN"
 "http://www.w3.org/TR/2001/REC-SVG-20010904/DTD/svg10.dtd">
<svg version="1.0" xmlns="http://www.w3.org/2000/svg"
 width="243.000000pt" height="234.000000pt" viewBox="0 0 243.000000 234.000000"
 preserveAspectRatio="xMidYMid meet">
<metadata>
Created by potrace 1.10, written by Peter Selinger 2001-2011
</metadata>
<g transform="translate(0.000000,234.000000) scale(0.100000,-0.100000)"
fill="#000000" stroke="none">
<path d="M950 2310 c-94 -20 -208 -59 -285 -97 -136 -68 -344 -230 -328 -256
3 -5 1 -7 -5 -4 -13 9 -82 -68 -140 -156 -95 -147 -167 -342 -179 -487 -3 -41
-3 -73 0 -70 3 3 13 41 22 85 37 178 104 341 194 473 47 68 101 122 101 101 1
-8 7 0 14 17 18 42 62 74 101 74 60 0 97 -70 81 -154 -10 -53 -27 -44 -19 9 4
35 3 45 -8 45 -11 0 -11 2 1 10 13 8 12 13 -6 37 -35 47 -93 43 -119 -7 -17
-33 -22 -76 -5 -50 7 11 10 4 10 -26 0 -48 22 -72 60 -66 14 2 38 4 55 5 25 2
32 8 43 42 7 22 11 54 7 72 -7 37 -47 89 -75 98 -11 4 -20 13 -20 20 0 33 230
168 365 215 33 11 112 31 175 45 64 13 127 28 140 34 45 18 -87 11 -180 -9z
m-486 -387 c9 -52 0 -106 -20 -114 -40 -16 -44 -11 -44 51 0 53 2 60 20 60 11
0 20 7 20 15 0 26 18 16 24 -12z"/>
<path d="M420 1890 c0 -11 7 -20 15 -20 8 0 15 9 15 20 0 11 -7 20 -15 20 -8
0 -15 -9 -15 -20z"/>
<path d="M1285 2320 c12 -4 59 -15 105 -25 111 -21 241 -61 310 -92 376 -175
602 -460 683 -863 26 -124 38 -140 33 -40 -9 152 -85 362 -187 512 -100 147
-293 314 -458 398 -82 41 -218 87 -311 104 -88 17 -211 21 -175 6z"/>
<path d="M1130 2189 c0 -6 -6 -9 -12 -6 -18 5 -47 -60 -48 -105 0 -28 7 -42
31 -62 17 -14 36 -26 42 -25 7 0 2 5 -10 11 -12 6 -29 26 -38 45 -15 31 -15
40 -3 71 8 22 27 44 46 55 28 16 37 17 62 7 17 -7 30 -19 30 -26 0 -12 -5 -11
-25 2 -57 37 -124 -38 -93 -103 29 -61 108 -33 108 38 0 21 5 41 10 44 15 9
12 31 -6 49 -17 18 -94 22 -94 5z m70 -94 l0 -55 -35 0 c-34 0 -34 0 -33 45 1
47 14 64 51 65 14 0 17 -9 17 -55z"/>
<path d="M1150 2076 c0 -8 4 -17 9 -20 11 -7 33 18 24 27 -12 12 -33 7 -33 -7z"/>
<path d="M1796 2121 c38 -23 77 -74 93 -120 22 -67 8 -146 -40 -215 -25 -37
-97 -89 -110 -80 -14 9 -10 34 5 34 41 0 107 88 120 160 16 88 -62 210 -124
195 -14 -3 -47 -10 -73 -15 -78 -14 -78 -16 -76 -162 0 -71 -1 -131 -3 -133
-2 -3 -15 13 -29 35 -39 65 -96 67 -86 4 12 -75 94 -142 184 -151 183 -19 318
183 239 354 -23 49 -91 113 -120 113 -6 0 3 -9 20 -19z m7 -88 c-4 -11 -2 -14
5 -9 17 10 32 -28 32 -84 0 -51 -30 -130 -50 -130 -12 0 -11 218 2 226 5 3 3
13 -4 22 -12 15 -11 16 4 4 10 -8 14 -20 11 -29z m-45 -100 l-3 -128 -64 -7
c-35 -4 -68 -5 -73 -2 -4 3 -8 61 -8 129 0 140 -6 132 93 134 l58 1 -3 -127z
m-240 -95 c-2 -12 -8 -23 -14 -25 -15 -5 -25 35 -10 41 22 9 27 6 24 -16z m25
-42 c3 -8 0 -19 -7 -26 -10 -8 -15 -6 -20 6 -7 17 0 34 14 34 4 0 10 -6 13
-14z m33 -37 c10 -17 -13 -36 -27 -22 -12 12 -4 33 11 33 5 0 12 -5 16 -11z
m150 3 c-7 -12 -79 -14 -96 -2 -11 7 1 10 43 10 32 0 56 -4 53 -8z m-106 -43
c0 -20 -8 -23 -28 -11 -17 11 -4 42 14 35 8 -3 14 -14 14 -24z m50 -9 c0 -13
-7 -20 -20 -20 -13 0 -20 7 -20 20 0 13 7 20 20 20 13 0 20 -7 20 -20z m53 6
c7 -18 -1 -26 -25 -26 -18 0 -25 20 -11 33 11 12 31 8 36 -7z"/>
<path d="M1653 2033 c-22 -4 -23 -9 -23 -95 0 -89 0 -90 23 -84 12 3 37 6 55
6 l32 0 0 90 0 90 -32 -1 c-18 -1 -43 -4 -55 -6z m59 -55 c7 -48 -5 -82 -30
-86 -13 -2 -22 2 -23 10 -7 83 0 108 30 108 13 0 20 -9 23 -32z"/>
<path d="M703 2023 c-17 -11 -23 -25 -23 -53 0 -45 9 -72 20 -65 5 3 11 1 15
-5 3 -5 16 -9 28 -9 20 1 21 2 2 6 -52 13 -71 66 -39 111 14 21 52 33 39 12
-3 -5 1 -10 9 -10 12 0 16 -10 16 -40 0 -36 -2 -40 -26 -40 -24 0 -26 3 -22
39 2 22 0 37 -4 35 -16 -10 -8 -73 10 -83 22 -12 52 3 52 26 0 9 8 22 18 29
16 13 16 14 0 8 -20 -7 -25 12 -5 19 7 4 6 6 -4 6 -9 1 -22 8 -29 16 -16 19
-29 18 -57 -2z"/>
<path d="M988 1910 c-14 -4 -32 -12 -40 -16 -7 -5 -24 -10 -37 -12 -24 -3
-150 -86 -163 -108 -4 -6 -26 -33 -48 -60 -22 -27 -43 -60 -47 -74 -3 -14 -15
-37 -27 -53 -11 -15 -20 -44 -21 -66 0 -21 -6 -46 -13 -54 -9 -11 -12 -51 -10
-138 l3 -123 -41 -4 c-39 -3 -43 -1 -70 39 -16 23 -35 44 -42 47 -7 2 -2 -7
12 -22 14 -14 26 -37 26 -51 0 -24 2 -25 71 -25 l71 0 -6 38 c-15 100 -14 107
20 110 l31 3 6 -66 c4 -36 9 -70 12 -75 4 -6 32 -10 64 -10 50 0 61 4 85 29
17 18 24 31 17 35 -17 11 -15 307 2 330 12 16 38 19 207 27 140 6 197 5 207
-3 11 -9 14 -50 13 -187 -2 -181 3 -216 26 -207 7 3 16 1 19 -4 4 -6 1 -10 -5
-10 -6 0 -8 -5 -5 -10 9 -15 155 -9 155 6 0 7 -19 10 -58 7 -52 -4 -61 -2 -81
19 -23 24 -24 29 -22 194 2 162 1 171 -20 198 l-23 29 -193 -6 c-107 -4 -202
-11 -212 -16 -40 -22 -43 -34 -42 -215 1 -170 0 -175 -21 -190 -12 -9 -37 -16
-55 -16 -37 0 -53 25 -53 81 0 17 -5 39 -10 50 -7 13 -7 25 -1 38 6 10 13 39
15 64 2 25 12 59 20 75 9 17 16 38 16 48 0 34 131 177 182 198 20 9 39 20 43
26 3 5 23 10 44 10 50 0 82 26 83 67 1 33 -21 64 -44 62 -7 0 -25 -4 -40 -9z
m62 -49 c0 -37 -2 -39 -36 -46 -42 -7 -42 -7 -54 34 -8 29 -7 31 18 37 15 3
32 7 37 9 28 10 35 3 35 -34z m-120 6 c0 -1 4 -16 9 -34 9 -30 7 -33 -29 -52
l-38 -19 -13 26 c-7 15 -15 30 -17 34 -2 4 14 16 35 27 35 19 53 25 53 18z
m-94 -88 c15 -31 15 -31 -17 -59 l-33 -27 -19 24 -20 24 34 35 c18 19 34 34
36 34 1 0 10 -14 19 -31z m-88 -142 c-27 -42 -29 -43 -58 -19 l-23 18 28 43
28 42 24 -24 24 -24 -23 -36z m-41 -62 c2 -1 -5 -21 -14 -44 -15 -38 -19 -42
-42 -36 -14 4 -28 8 -30 10 -2 2 5 26 14 54 l18 49 26 -16 c14 -9 27 -17 28
-17z m-41 -139 c-3 -11 -6 -33 -6 -47 0 -22 -4 -26 -30 -26 -28 0 -30 3 -30
36 0 20 3 46 6 58 5 19 9 20 36 11 24 -8 29 -15 24 -32z"/>
<path d="M211 1573 c-38 -38 -48 -90 -27 -132 22 -42 28 -39 10 4 -8 21 -12
47 -8 63 8 35 52 82 77 82 20 0 83 -57 73 -67 -3 -3 -17 6 -30 20 -29 31 -56
34 -79 9 -23 -25 -21 -32 8 -32 16 0 25 6 25 16 0 9 7 14 18 12 14 -3 17 -14
17 -58 0 -44 -3 -55 -17 -58 -13 -3 -18 3 -18 21 0 36 -10 57 -26 57 -20 0
-17 -18 4 -22 16 -3 16 -4 -1 -11 -13 -5 -21 0 -28 16 -8 18 -9 16 -4 -13 6
-39 36 -70 68 -70 22 0 46 26 47 50 0 8 7 28 15 43 14 28 11 57 -7 57 -6 0 -8
6 -5 13 3 8 0 14 -6 15 -7 1 -26 4 -44 8 -27 5 -37 1 -62 -23z"/>
<path d="M1039 1583 c-109 -3 -150 -7 -158 -17 -8 -9 -11 -61 -9 -157 l3 -144
170 -3 c151 -2 171 -1 182 15 9 11 13 59 13 149 0 107 -3 136 -16 148 -8 9
-21 15 -27 14 -7 -1 -78 -4 -158 -5z m152 -33 c17 -10 19 -22 19 -129 0 -104
-2 -120 -17 -126 -28 -11 -256 -15 -280 -5 -22 9 -23 14 -23 124 0 81 4 117
13 123 31 19 257 29 288 13z"/>
<path d="M2026 1554 c-16 -14 -34 -23 -42 -20 -7 3 -14 0 -16 -6 -3 -7 -15 -5
-35 5 -28 15 -32 15 -46 -1 -57 -64 -9 -210 85 -257 73 -36 179 -6 225 65 12
19 30 44 40 54 10 11 12 16 6 12 -10 -5 -13 7 -14 46 l-2 53 -7 -58 c-13 -103
-90 -172 -184 -164 -26 2 -52 11 -57 18 -5 8 -9 10 -9 5 0 -5 -7 -3 -15 4 -26
22 -1 34 29 15 37 -25 118 -16 152 16 37 34 54 72 53 116 l-1 38 -8 -33 c-16
-69 -30 -60 -30 19 0 45 -5 80 -12 87 -21 21 -80 14 -112 -14z m97 -21 c2 -16
2 -62 -2 -103 l-6 -75 -35 0 -35 0 3 55 c2 44 1 53 -9 43 -16 -16 -95 -17
-104 -2 -4 5 -4 22 -1 36 6 23 10 25 56 21 45 -3 50 -1 50 18 0 28 8 34 45 34
28 0 33 -4 38 -27z m-203 -23 c0 -11 -4 -20 -8 -20 -11 0 -6 -65 8 -89 7 -13
7 -22 0 -26 -15 -9 -32 5 -26 21 3 7 1 16 -4 19 -10 6 -5 88 5 106 10 16 25
10 25 -11z m74 -86 c9 -3 16 -16 16 -28 0 -15 3 -17 8 -8 6 8 9 2 9 -18 0 -33
-5 -35 -39 -20 -24 12 -51 57 -42 71 6 10 26 11 48 3z m-48 -65 c3 -6 1 -16
-5 -22 -9 -9 -14 -8 -21 3 -9 15 -4 30 10 30 5 0 12 -5 16 -11z"/>
<path d="M2060 1525 c-15 -18 -10 -45 13 -59 15 -9 21 -7 33 8 18 25 18 31 -2
50 -19 20 -28 20 -44 1z m45 -15 c9 -15 -14 -40 -31 -33 -22 8 -18 43 5 43 11
0 23 -5 26 -10z"/>
<path d="M1983 1492 c-25 -2 -33 -8 -33 -23 0 -15 7 -19 35 -19 23 0 38 6 42
16 8 21 -6 30 -44 26z"/>
<path d="M366 1238 c-24 -31 -29 -33 -113 -39 l-88 -6 90 -1 c95 -2 107 2 118
31 11 28 59 19 68 -13 l7 -25 1 27 c1 28 -21 58 -44 58 -7 0 -25 -15 -39 -32z"/>
<path d="M28 1233 c-9 -2 -19 -11 -22 -19 -5 -13 -3 -13 16 1 30 20 50 19 81
-5 14 -11 33 -20 44 -20 12 0 4 9 -22 25 -38 23 -61 28 -97 18z"/>
<path d="M833 1200 c-13 -15 -23 -31 -23 -34 0 -3 48 -5 108 -4 l107 2 -105 5
c-94 5 -101 7 -77 19 16 6 33 12 40 11 7 0 3 -4 -8 -9 -18 -8 -17 -9 8 -9 15
-1 27 4 27 9 0 6 8 10 18 10 14 0 15 -2 2 -10 -10 -7 16 -10 83 -10 63 0 96 4
92 10 -3 6 4 10 17 10 18 0 20 -2 8 -10 -10 -7 11 -10 68 -10 45 0 82 4 82 8
0 5 -8 16 -18 25 -16 15 -45 17 -201 17 -119 0 -180 -3 -176 -10 3 -5 -1 -10
-10 -10 -9 0 -13 5 -10 10 14 22 -12 7 -32 -20z"/>
<path d="M2285 1208 c-11 -6 -27 -19 -36 -30 -9 -11 -28 -20 -47 -20 -45 -1
-40 -16 6 -16 31 -1 42 5 70 39 18 21 32 39 30 39 -2 0 -12 -6 -23 -12z"/>
<path d="M29 1191 l-24 -19 58 -3 c31 -2 57 -2 57 0 0 8 -44 41 -55 41 -7 0
-23 -9 -36 -19z"/>
<path d="M1505 1189 c-22 -3 16 -6 85 -6 124 0 130 4 15 9 -33 2 -78 0 -100
-3z"/>
<path d="M2297 1178 c-32 -23 -35 -38 -7 -38 11 0 20 5 20 10 0 6 7 10 15 10
8 0 15 5 15 10 0 18 18 11 25 -10 8 -24 65 -29 65 -5 0 9 -6 12 -15 8 -9 -3
-23 1 -33 9 -28 25 -57 27 -85 6z"/>
<path d="M235 1169 c47 -10 205 -10 205 0 0 6 -49 9 -117 8 -67 -1 -105 -4
-88 -8z"/>
<path d="M1195 1170 l-90 -6 98 -2 c63 -1 96 2 92 8 -3 6 -7 9 -8 8 -1 -1 -42
-5 -92 -8z"/>
<path d="M493 1163 c26 -2 67 -2 90 0 23 2 2 3 -48 3 -49 0 -68 -1 -42 -3z"/>
<path d="M1330 1159 c0 -11 467 -12 473 -1 3 4 -103 8 -234 8 -131 1 -239 -3
-239 -7z"/>
<path d="M1822 1155 c7 -7 229 -8 236 -1 3 4 -50 6 -118 6 -68 0 -121 -2 -118
-5z"/>
<path d="M53 1143 c15 -2 27 -9 27 -14 0 -5 -12 -6 -26 -3 -22 6 -25 4 -22
-12 2 -12 13 -20 31 -22 24 -3 27 0 27 27 0 29 -3 31 -32 30 -31 -2 -31 -2 -5
-6z"/>
<path d="M121 1118 c-1 -25 -6 -38 -15 -38 -7 0 -19 -6 -25 -14 -9 -11 -8 -15
5 -20 9 -3 19 -4 24 -1 15 9 27 60 19 85 -6 22 -7 20 -8 -12z"/>
<path d="M151 1146 c7 -7 149 -10 156 -3 3 4 -31 7 -77 7 -46 0 -81 -2 -79 -4z"/>
<path d="M330 1142 c0 -4 16 -8 35 -9 19 -1 35 3 35 8 0 5 -16 9 -35 9 -19 0
-35 -4 -35 -8z"/>
<path d="M424 1138 c-3 -5 43 -7 103 -7 119 2 113 7 -15 11 -46 2 -86 0 -88
-4z"/>
<path d="M710 1134 c58 -7 210 -8 210 -1 0 4 -53 6 -117 6 -65 -1 -107 -3 -93
-5z"/>
<path d="M945 1130 c-4 -6 7 -10 24 -10 17 0 31 5 31 10 0 6 -11 10 -24 10
-14 0 -28 -4 -31 -10z"/>
<path d="M147 1094 c-4 -23 -17 -54 -29 -70 l-22 -29 22 19 c12 10 27 34 34
53 12 33 21 38 83 47 17 2 6 3 -22 1 -30 -1 -54 3 -56 9 -2 6 -7 -7 -10 -30z"/>
<path d="M1114 1121 c26 -5 28 -8 15 -21 -16 -17 -19 -62 -3 -67 5 -2 10 9 9
23 0 40 23 41 39 2 29 -71 28 -87 -1 -115 l-28 -26 25 7 c74 19 76 19 63 5
-23 -23 -14 -30 18 -14 24 13 28 19 19 30 -6 7 -30 49 -54 94 l-44 81 87 0
c207 0 570 -14 565 -22 -3 -4 -17 -8 -32 -8 -18 0 -23 -3 -14 -8 10 -7 10 -18
1 -54 -11 -39 -10 -52 5 -93 10 -25 20 -44 23 -41 2 2 0 13 -6 24 -6 12 -11
42 -11 68 0 41 5 51 39 85 57 57 120 53 179 -11 23 -26 39 -67 29 -76 -10 -10
-27 6 -27 25 0 9 -14 30 -30 46 -24 23 -40 30 -71 30 -82 0 -130 -103 -78
-169 15 -20 25 -24 32 -17 15 15 30 14 21 -1 -6 -10 -4 -10 7 0 7 6 30 12 50
12 27 0 42 6 53 22 8 12 13 25 10 30 -3 4 4 8 15 8 11 0 23 5 26 11 10 15 -16
100 -32 106 -37 14 -3 23 90 23 l102 0 48 -45 c43 -39 54 -45 93 -45 24 0 44
-3 44 -7 0 -24 -43 -178 -65 -238 -32 -85 -94 -201 -148 -275 -60 -82 -215
-229 -293 -278 -149 -93 -187 -113 -198 -102 -15 15 -36 12 -36 -5 0 -13 -4
-14 -22 -4 -13 6 -31 19 -41 27 -17 15 -31 20 -69 24 -10 1 -18 7 -18 13 0 5
-5 3 -10 -5 -8 -12 -10 -12 -10 5 0 11 -15 32 -32 48 -18 16 -27 26 -20 22 38
-21 56 56 22 96 l-19 24 11 -37 c6 -20 7 -45 3 -55 -6 -16 -8 -16 -17 7 -6 14
-16 48 -23 77 l-13 52 29 -1 c41 -1 47 9 20 35 -17 17 -21 18 -15 5 4 -13 -1
-20 -20 -28 -22 -8 -26 -16 -26 -48 0 -49 26 -136 45 -152 21 -17 19 -25 -7
-37 -23 -10 -22 -10 9 -26 17 -9 57 -20 88 -23 40 -5 60 -13 70 -27 8 -11 12
-24 9 -28 -9 -15 -73 -41 -83 -35 -5 4 -12 2 -16 -4 -3 -5 -18 -10 -33 -10
-15 0 -34 -5 -42 -11 -23 -16 62 -2 158 27 239 71 471 233 623 434 106 139
202 377 215 534 6 67 5 70 -10 49 -36 -48 -121 -34 -145 25 l-12 29 -382 6
c-450 8 -794 7 -753 -2z m852 -106 c17 -5 23 -63 9 -82 -10 -13 -21 -14 -71
-7 -58 9 -59 10 -62 44 -5 45 17 62 72 54 23 -3 46 -7 52 -9z"/>
<path d="M1906 995 c-20 -21 -5 -55 25 -55 24 0 36 27 22 48 -14 23 -29 25
-47 7z m39 -25 c0 -22 -29 -18 -33 3 -3 14 1 18 15 15 10 -2 18 -10 18 -18z"/>
<path d="M350 1111 c41 -4 81 -10 87 -14 9 -6 11 -3 7 7 -5 13 -22 16 -88 14
l-81 -1 75 -6z"/>
<path d="M460 1110 c0 -6 35 -10 80 -10 80 0 81 0 98 -31 101 -184 233 -278
413 -295 41 -3 77 -9 80 -13 11 -11 25 -66 21 -84 -4 -18 -56 -45 -178 -91
-39 -15 -82 -38 -95 -52 -13 -14 -40 -34 -60 -44 -44 -23 -167 -153 -185 -197
-8 -18 -14 -51 -14 -73 0 -22 -4 -40 -9 -40 -36 0 -150 88 -266 204 -49 50
-94 90 -98 88 -5 -1 -6 2 -2 8 3 5 -6 27 -20 47 -36 54 -31 63 13 21 114 -112
268 -82 330 63 22 50 34 129 21 129 -5 0 -9 -17 -9 -37 0 -44 -31 -117 -63
-151 -25 -27 -88 -62 -112 -62 -8 0 -15 8 -15 18 0 11 19 26 52 42 65 31 97
86 103 176 4 61 2 57 -16 -35 -8 -37 -21 -65 -46 -92 -92 -102 -221 -52 -263
101 -11 41 -20 55 -35 57 -17 2 -17 1 -2 -3 13 -4 17 -14 15 -32 -4 -31 -28
-43 -28 -13 0 11 -4 23 -10 26 -14 9 -12 -29 2 -43 7 -7 9 -12 5 -12 -4 0 0
-16 8 -36 18 -43 18 -47 6 -39 -14 8 -85 159 -104 220 -9 28 -24 90 -33 138
-14 72 -15 90 -4 97 9 6 7 11 -10 20 l-23 12 6 -74 c14 -162 103 -384 215
-534 79 -106 204 -223 315 -295 50 -32 95 -59 100 -59 5 0 6 28 2 63 -4 34 -2
73 3 87 5 14 48 64 94 112 60 64 90 88 108 88 17 1 32 11 45 32 15 23 39 38
95 60 41 16 94 37 116 48 23 10 51 16 63 13 26 -7 26 1 3 90 l-17 68 -96 2
c-88 2 -101 5 -171 39 -91 45 -183 138 -224 225 l-27 58 -89 2 c-52 1 -88 -2
-88 -7z m-245 -440 c7 -21 0 -40 -15 -40 -12 0 -23 37 -15 50 10 16 23 12 30
-10z m35 -71 c0 -18 -24 -21 -36 -4 -11 14 -11 22 -2 33 10 12 14 11 25 -4 7
-10 13 -21 13 -25z m42 -31 c16 -13 34 -32 38 -43 8 -18 9 -18 9 -1 1 12 6 16
17 12 9 -3 18 -6 20 -6 2 0 4 -9 4 -20 0 -24 -18 -25 -65 -6 -26 11 -33 19
-29 33 5 14 4 15 -4 4 -9 -12 -13 -12 -27 3 -9 9 -14 23 -11 31 7 20 11 19 48
-7z"/>
<path d="M710 1109 c0 -15 63 -101 101 -138 64 -62 137 -92 236 -100 46 -4 83
-3 83 1 0 4 -21 37 -47 75 -25 37 -55 89 -66 115 l-19 47 -144 3 c-79 2 -144
1 -144 -3z m266 -19 c6 0 21 -24 34 -52 13 -29 36 -72 52 -95 41 -60 38 -66
-30 -61 -74 5 -157 45 -211 101 -43 44 -83 102 -75 109 2 3 52 3 111 1 60 -1
113 -3 119 -3z"/>
<path d="M2270 1106 c0 -19 47 -56 71 -56 19 0 79 46 79 61 0 5 -11 9 -25 9
-20 0 -25 -5 -25 -26 0 -22 -4 -25 -27 -22 -20 2 -29 9 -31 26 -4 25 -42 32
-42 8z"/>
<path d="M1315 1090 c50 -3 94 -2 100 2 5 4 -36 7 -90 6 l-100 -1 90 -7z"/>
<path d="M286 902 c-22 -25 -24 -248 -2 -277 15 -21 128 -38 157 -24 21 11 31
105 22 215 -7 95 0 88 -104 98 -46 5 -59 3 -73 -12z m162 -149 l3 -143 -28 0
c-16 0 -52 3 -80 6 l-53 7 0 139 0 139 78 -3 77 -3 3 -142z"/>
<path d="M320 835 l0 -45 50 0 50 0 0 39 c0 35 -3 39 -31 45 -64 13 -69 10
-69 -39z m73 11 c9 -22 -19 -41 -38 -26 -8 7 -15 19 -15 26 0 19 46 18 53 0z"/>
<path d="M342 754 c-26 -18 -29 -60 -6 -92 20 -29 50 -28 70 4 20 30 11 69
-21 90 -18 12 -24 11 -43 -2z m42 -40 c8 -20 -1 -34 -20 -34 -8 0 -14 8 -14
18 0 33 23 44 34 16z"/>
<path d="M1293 853 c-22 -15 -34 -41 -13 -28 6 3 10 1 10 -6 0 -7 -10 -10 -27
-6 -16 2 -37 1 -48 -3 -16 -7 -14 -9 15 -11 19 -1 43 -2 53 -1 13 1 17 -6 17
-37 0 -22 5 -41 11 -43 7 -2 12 -25 13 -51 1 -38 4 -47 19 -47 20 0 39 -42 30
-66 -3 -9 0 -20 8 -25 12 -8 11 -11 -2 -19 -9 -5 -20 -21 -23 -35 -4 -16 -16
-27 -34 -31 -30 -8 -228 -203 -256 -254 -5 -8 29 24 75 71 46 48 106 104 134
125 48 38 49 38 29 9 -14 -19 -23 -53 -27 -95 -4 -45 -3 -58 3 -42 10 24 30
22 30 -3 0 -7 7 -15 15 -19 19 -7 19 -8 -5 39 -32 63 -27 101 20 147 22 22 39
43 39 46 -4 23 3 33 16 28 13 -5 15 0 8 32 -11 54 -6 129 13 168 16 33 98 114
115 114 23 0 6 -40 -25 -58 -68 -40 -101 -174 -61 -252 26 -52 55 -90 67 -90
6 0 4 8 -5 18 -10 10 -14 21 -11 25 4 3 -1 14 -10 23 -12 12 -14 20 -7 27 7 7
26 2 60 -16 54 -30 101 -34 152 -13 19 7 39 12 45 9 22 -8 46 35 46 82 0 40 3
47 24 55 35 14 38 32 16 77 -57 112 -174 160 -298 125 -53 -16 -111 -72 -120
-117 -8 -46 -22 -53 -34 -18 -6 15 -13 35 -17 43 -3 8 -7 29 -8 45 -2 17 -6
39 -8 50 -3 11 -6 26 -6 33 -1 16 -11 15 -38 -5z m297 -53 c0 -13 -7 -20 -20
-20 -19 0 -27 20 -13 33 13 14 33 6 33 -13z m60 0 c0 -13 -7 -20 -20 -20 -11
0 -20 2 -20 4 0 2 -3 11 -6 20 -5 12 0 16 20 16 19 0 26 -5 26 -20z m43 -2
c10 -8 14 -18 9 -26 -12 -18 -42 -4 -42 19 0 22 10 24 33 7z m48 -31 c17 -13
14 -37 -5 -37 -18 0 -35 21 -29 36 6 17 13 17 34 1z m-27 -57 l31 -30 -50 6
c-28 4 -55 11 -62 16 -7 5 -19 6 -30 1 -19 -9 -100 -9 -109 0 -6 6 45 44 77
56 34 12 107 -12 143 -49z m73 11 c10 -15 9 -22 -1 -30 -17 -14 -41 11 -32 34
7 20 19 19 33 -4z m31 -55 c9 -20 8 -25 -5 -30 -23 -9 -44 29 -26 47 11 12 20
8 31 -17z m-320 -71 c-2 -38 -7 -70 -13 -71 -12 -4 -50 74 -41 83 3 4 6 -1 6
-10 0 -9 5 -19 11 -23 9 -5 10 6 7 39 -5 45 7 76 24 59 5 -5 8 -40 6 -77z
m215 66 c4 -4 7 -41 5 -82 l-3 -74 -45 -6 c-25 -3 -35 -7 -22 -7 12 -1 22 -7
22 -13 0 -8 -11 -9 -31 -5 -17 3 -42 6 -55 6 -30 0 -32 19 -1 22 12 0 2 4 -23
7 l-45 6 -3 84 -3 84 98 -7 c54 -4 102 -11 106 -15z m45 -84 c2 -64 0 -77 -13
-77 -12 0 -15 15 -15 81 0 60 3 80 13 77 8 -3 13 -31 15 -81z"/>
<path d="M1530 596 l0 -65 58 -6 c118 -13 107 -19 110 56 l3 66 -53 6 c-29 4
-68 7 -85 7 l-33 0 0 -64z m142 21 c8 -11 3 -65 -6 -74 -2 -2 -29 -1 -60 3
-59 7 -65 15 -50 70 5 18 12 20 57 17 28 -2 55 -9 59 -16z"/>
<path d="M696 774 c-19 -18 -30 -58 -23 -76 3 -7 6 -1 6 13 1 15 10 38 22 53
23 29 19 35 -5 10z"/>
<path d="M716 754 c-22 -21 -20 -67 3 -88 17 -16 23 -16 48 -4 34 16 43 60 17
89 -21 23 -47 24 -68 3z m58 -20 c19 -7 21 -53 3 -60 -23 -8 -67 14 -67 34 0
31 25 41 64 26z"/>
<path d="M1208 554 c-13 -30 -18 -57 -14 -76 8 -41 -36 -95 -106 -132 l-53
-27 30 25 c31 27 28 34 -6 15 -11 -5 -24 -21 -29 -35 -17 -43 -30 -17 -14 28
7 22 14 47 14 56 0 13 -3 13 -19 -2 -11 -10 -21 -37 -25 -66 -4 -28 -10 -50
-15 -50 -4 0 -8 -6 -8 -12 -6 -136 -34 -213 -80 -224 -31 -8 -16 -18 41 -28
34 -6 38 -5 32 9 -3 10 5 48 19 87 14 38 25 87 25 109 0 46 17 66 85 100 69
34 122 92 140 154 12 44 17 115 7 115 -2 0 -12 -21 -24 -46z"/>
<path d="M1084 504 c-13 -18 -19 -22 -25 -12 -4 7 -11 9 -15 5 -4 -3 -1 -13 6
-22 8 -10 10 -29 6 -56 -4 -27 -3 -38 4 -34 5 3 10 16 10 28 0 12 11 40 25 62
13 22 25 43 25 48 0 16 -21 6 -36 -19z"/>
<path d="M1132 468 l-22 -53 30 33 c17 18 30 41 30 52 0 35 -15 22 -38 -32z"/>
<path d="M1477 383 c7 -17 83 -58 83 -44 0 5 -20 20 -44 34 -30 17 -43 20 -39
10z"/>
<path d="M1415 380 c3 -5 13 -10 21 -10 8 0 23 -15 34 -32 11 -18 20 -27 20
-20 0 16 -54 72 -70 72 -6 0 -8 -4 -5 -10z"/>
<path d="M1562 290 c5 -17 7 -43 3 -58 -4 -17 -3 -24 3 -17 17 17 19 49 5 78
-18 36 -25 35 -11 -3z"/>
<path d="M741 217 c2 -27 6 -50 11 -53 4 -3 8 -23 8 -44 0 -21 5 -42 10 -45
13 -8 12 25 -4 108 -16 82 -28 99 -25 34z"/>
</g>
</svg>
